<?xml version="1.0" encoding="UTF-8"?>
<svg version="1.1" xmlns="http://www.w3.org/2000/svg" width="156" height="158">
<path d="M0 0 C13.77563377 13.28566594 21.57189087 30.99268493 22.2043457 50.07641602 C22.43567082 69.35855382 16.23716352 87.6075432 2.85546875 101.75390625 C2.19546875 101.75390625 1.53546875 101.75390625 0.85546875 101.75390625 C0.85546875 102.41390625 0.85546875 103.07390625 0.85546875 103.75390625 C-12.11319512 117.03431685 -30.25646941 122.94932776 -48.33203125 123.25390625 C-67.70895918 123.17894715 -84.71475842 116.66274715 -98.890625 103.1875 C-112.14453125 88.87695651 -112.14453125 88.87695651 -112.14453125 82.75390625 C-111.03078125 82.84929687 -109.91703125 82.9446875 -108.76953125 83.04296875 C-81.98990289 85.09430011 -57.88498458 77.50964703 -37.0234375 60.296875 C-25.99860396 50.57692806 -25.99860396 50.57692806 -20.9140625 37.2578125 C-20.8970053 35.07107987 -20.96300091 32.93227027 -21.14453125 30.75390625 C-24.50377906 28.87949008 -26.82291302 28.39605614 -30.69921875 29.046875 C-45.2976681 33.2678324 -56.60288484 45.00933114 -66.87695312 55.61401367 C-76.87244991 65.9254156 -90.25465796 77.39491249 -105.37890625 77.8515625 C-106.5390625 77.83996094 -107.69921875 77.82835938 -108.89453125 77.81640625 C-110.065 77.80738281 -111.23546875 77.79835938 -112.44140625 77.7890625 C-113.77945313 77.77166016 -113.77945313 77.77166016 -115.14453125 77.75390625 C-121.7787225 59.66065739 -121.68973374 41.29314758 -114.45703125 23.37890625 C-105.94686921 5.10401283 -91.57656099 -7.92737551 -72.921875 -15.25 C-47.31292 -24.43464631 -20.16803641 -17.50679487 0 0 Z " fill="#1D99D9" transform="translate(126.14453125,26.24609375)"/>
<path d="M0 0 C0.33 0.99 0.66 1.98 1 3 C0.360625 3.5775 -0.27875 4.155 -0.9375 4.75 C-3.02309515 7.02519471 -3.71757943 7.98751389 -4 11 C-3.62092718 13.18703385 -3.62092718 13.18703385 -3 15 C-8.625 17.125 -8.625 17.125 -12 16 C-12.99 16.33 -13.98 16.66 -15 17 C-14.773125 18.0725 -14.54625 19.145 -14.3125 20.25 C-14 24 -14 24 -15.25 26.4375 C-17 28 -17 28 -20 28 C-20.06058594 28.60328125 -20.12117188 29.2065625 -20.18359375 29.828125 C-20.26738281 30.62734375 -20.35117187 31.4265625 -20.4375 32.25 C-20.55931641 33.43335937 -20.55931641 33.43335937 -20.68359375 34.640625 C-21.14977832 38.11686552 -21.81089962 40.65331596 -23.5 43.75 C-25.2997972 47.64956059 -25.63278319 50.740285 -26 55 C-24.35 55 -22.7 55 -21 55 C-20.8125 57.3125 -20.8125 57.3125 -21 60 C-21.9793879 61.02019573 -22.97895449 62.02149805 -24 63 C-24 64.32 -24 65.64 -24 67 C-21.525 66.505 -21.525 66.505 -19 66 C-19 68 -19 70 -19 72 C-20.485 72.99 -20.485 72.99 -22 74 C-20.2292305 76.31250531 -20.2292305 76.31250531 -17 78 C-12.89482005 78.26003161 -8.97417536 78.08695395 -5 77 C-3.2543929 75.02080386 -3.2543929 75.02080386 -2 73 C-1.34 73 -0.68 73 0 73 C0 73.66 0 74.32 0 75 C0.66 75 1.32 75 2 75 C2.33 74.34 2.66 73.68 3 73 C4.9375 72.25 4.9375 72.25 7 72 C7.99 72.99 7.99 72.99 9 74 C-2.07459309 81.28095588 -10.73664953 83.56130167 -24 83 C-30.63419125 64.90675114 -30.54520249 46.53924133 -23.3125 28.625 C-18.58298874 18.46875223 -10.36105955 5.18052978 0 0 Z M-22 77 C-22 77.66 -22 78.32 -22 79 C-21.01 78.67 -20.02 78.34 -19 78 C-19.99 77.67 -20.98 77.34 -22 77 Z " fill="#5EBCDB" transform="translate(35,21)"/>
<path d="M0 0 C3.63 0.33 7.26 0.66 11 1 C10.34 1.66 9.68 2.32 9 3 C10.32 5.97 11.64 8.94 13 12 C14.65 11.67 16.3 11.34 18 11 C18 13.83967231 17.59732819 16.23735711 17 19 C19.60582371 19.93065133 20.64198224 20.14917407 23.25 19.0625 C23.8275 18.711875 24.405 18.36125 25 18 C26.0625 19.875 26.0625 19.875 27 22 C26.67 22.66 26.34 23.32 26 24 C26.66 24.66 27.32 25.32 28 26 C28.33 26.33 28.66 26.66 29 27 C31.84087552 27.28318854 34.68165215 27.44850213 37.53125 27.62109375 C38.3459375 27.74613281 39.160625 27.87117188 40 28 C41 30 42 32 43 34 C43.99 34 44.98 34 46 34 C46 34.66 46 35.32 46 36 C47.62414378 36.19477739 49.24936423 36.38059458 50.875 36.5625 C51.77992187 36.66691406 52.68484375 36.77132812 53.6171875 36.87890625 C56.01653057 37.19674852 56.01653057 37.19674852 58 36 C58 36.66 58 37.32 58 38 C59.6396875 37.7525 59.6396875 37.7525 61.3125 37.5 C65 37 65 37 68 37 C68 37.66 68 38.32 68 39 C70.31 39 72.62 39 75 39 C75 39.33 75 39.66 75 40 C52.08823333 40.98718337 33.55701075 37.94472071 15.625 22.6875 C9.3322097 16.70572075 4.21519844 9.57962289 0 2 C0 1.34 0 0.68 0 0 Z " fill="#4DB7DB" transform="translate(14,109)"/>
<path d="M0 0 C6.17826385 1.4257532 10.22197115 5.07024439 15 9 C15.99 9.721875 16.98 10.44375 18 11.1875 C27.07864072 18.95841408 35.99660048 32.5440786 37.4296875 44.62109375 C37.43636357 47.45508608 37.33000687 50.18708432 37 53 C36.566875 52.360625 36.13375 51.72125 35.6875 51.0625 C34.08760823 48.73253997 34.08760823 48.73253997 31 48 C30.896875 46.741875 30.79375 45.48375 30.6875 44.1875 C30.30390844 40.86042583 30.30390844 40.86042583 28.4375 38.125 C27.963125 37.75375 27.48875 37.3825 27 37 C27 36.34 27 35.68 27 35 C26.01 35 25.02 35 24 35 C23.67 34.01 23.34 33.02 23 32 C22.67 32.66 22.34 33.32 22 34 C21.34 34 20.68 34 20 34 C20.06510417 31.98177083 20.13020833 29.96354167 20.1953125 27.9453125 C20.18331689 25.76136355 20.18331689 25.76136355 18 24 C18.375 21.375 18.375 21.375 19 19 C18.34 19 17.68 19 17 19 C16.34 18.01 15.68 17.02 15 16 C14.34 16.33 13.68 16.66 13 17 C12.938125 15.88625 12.938125 15.88625 12.875 14.75 C11.64681441 10.88998815 9.40496514 10.01518345 6 8 C5.34 7.34 4.68 6.68 4 6 C1.93125966 5.3574765 1.93125966 5.3574765 0 5 C0.99 4.67 1.98 4.34 3 4 C2.01 3.34 1.02 2.68 0 2 C0 1.34 0 0.68 0 0 Z " fill="#227CCA" transform="translate(108,15)"/>
<path d="M0 0 C0.33 0.99 0.66 1.98 1 3 C0.360625 3.5775 -0.27875 4.155 -0.9375 4.75 C-3.02309515 7.02519471 -3.71757943 7.98751389 -4 11 C-3.62092718 13.18703385 -3.62092718 13.18703385 -3 15 C-8.625 17.125 -8.625 17.125 -12 16 C-12.99 16.33 -13.98 16.66 -15 17 C-14.773125 18.0725 -14.54625 19.145 -14.3125 20.25 C-14 24 -14 24 -15.25 26.4375 C-17 28 -17 28 -20 28 C-20.06058594 28.60328125 -20.12117188 29.2065625 -20.18359375 29.828125 C-20.26738281 30.62734375 -20.35117187 31.4265625 -20.4375 32.25 C-20.55931641 33.43335937 -20.55931641 33.43335937 -20.68359375 34.640625 C-21.08882794 37.66237132 -21.63402028 40.26804056 -23 43 C-23.99 43 -24.98 43 -26 43 C-26.61440183 30.89628401 -19.61406103 19.94986121 -12 11 C-3.32315522 1.66157761 -3.32315522 1.66157761 0 0 Z " fill="#51B3DA" transform="translate(35,21)"/>
<path d="M0 0 C0.66 0.33 1.32 0.66 2 1 C1.67 1.66 1.34 2.32 1 3 C0.34 3 -0.32 3 -1 3 C-0.505 4.485 -0.505 4.485 0 6 C-0.99 6.66 -1.98 7.32 -3 8 C-2.505 8.99 -2.505 8.99 -2 10 C-5.46501398 12.37600959 -7.76288459 13.57258316 -12 13 C-12.66 12.34 -13.32 11.68 -14 11 C-16.26274788 11.35355436 -17.95088852 11.97544426 -20 13 C-21.87939453 13.02172852 -21.87939453 13.02172852 -24.1328125 12.87890625 C-24.93847656 12.83056641 -25.74414062 12.78222656 -26.57421875 12.73242188 C-27.41597656 12.67634766 -28.25773437 12.62027344 -29.125 12.5625 C-30.39923828 12.48418945 -30.39923828 12.48418945 -31.69921875 12.40429688 C-33.79979124 12.27448622 -35.89994191 12.1378826 -38 12 C-38 11.67 -38 11.34 -38 11 C-37.00742187 10.91363281 -36.01484375 10.82726562 -34.9921875 10.73828125 C-23.55460815 9.60755921 -13.54971776 6.9601056 -3.25 1.625 C-2.1775 1.08875 -1.105 0.5525 0 0 Z " fill="#32ABDB" transform="translate(70,99)"/>
<path d="M0 0 C1.67542976 0.28604898 3.34385343 0.61781233 5 1 C-2.35615366 7.43663445 -9.47991394 10.17271713 -19.1875 10.0625 C-19.93708984 10.05798828 -20.68667969 10.05347656 -21.45898438 10.04882812 C-23.30602383 10.03706354 -25.15302213 10.01912865 -27 10 C-26.67 9.34 -26.34 8.68 -26 8 C-25.34 8 -24.68 8 -24 8 C-23.67 7.01 -23.34 6.02 -23 5 C-22.360625 5.185625 -21.72125 5.37125 -21.0625 5.5625 C-16.92833074 6.15309561 -13.05729068 6.05159952 -9 5 C-7.03712176 3.08261145 -7.03712176 3.08261145 -6 1 C-5.34 1 -4.68 1 -4 1 C-4 1.66 -4 2.32 -4 3 C-3.34 3 -2.68 3 -2 3 C-1.67 2.34 -1.34 1.68 -1 1 C-0.67 0.67 -0.34 0.34 0 0 Z " fill="#5AB8D9" transform="translate(39,93)"/>
<path d="M0 0 C3.63 0.33 7.26 0.66 11 1 C10.34 1.66 9.68 2.32 9 3 C11.33015139 9.49989597 14.08883742 15.74042512 17 22 C12.71572636 20.45925194 10.54850623 17.21451142 7.9375 13.6875 C7.50373047 13.11837891 7.06996094 12.54925781 6.62304688 11.96289062 C0 3.18256516 0 3.18256516 0 0 Z " fill="#66C1DF" transform="translate(14,109)"/>
<path d="M0 0 C1.76462683 3.08809695 2 4.23312136 2 8 C2.66 8 3.32 8 4 8 C4.66 9.98 5.32 11.96 6 14 C6.66 14 7.32 14 8 14 C9.28317892 17.84953676 9.06643637 20.94738135 9 25 C8.3503125 24.0409375 8.3503125 24.0409375 7.6875 23.0625 C6.08760823 20.73253997 6.08760823 20.73253997 3 20 C2.896875 18.741875 2.79375 17.48375 2.6875 16.1875 C2.30390844 12.86042583 2.30390844 12.86042583 0.4375 10.125 C-0.036875 9.75375 -0.51125 9.3825 -1 9 C-1 8.34 -1 7.68 -1 7 C-1.99 7 -2.98 7 -4 7 C-3.43628586 3.73045798 -2.50037734 2.17424117 0 0 Z " fill="#1078D0" transform="translate(136,43)"/>
<path d="M0 0 C0.33 0.99 0.66 1.98 1 3 C0.360625 3.5775 -0.27875 4.155 -0.9375 4.75 C-3.02309515 7.02519471 -3.71757943 7.98751389 -4 11 C-3.62092718 13.18703385 -3.62092718 13.18703385 -3 15 C-8.625 17.125 -8.625 17.125 -12 16 C-12.66 16.33 -13.32 16.66 -14 17 C-13.62615576 12.00325255 -11.04040037 9.52903694 -7.5625 6.25 C-7.05912109 5.75628906 -6.55574219 5.26257813 -6.03710938 4.75390625 C-2.34058964 1.17029482 -2.34058964 1.17029482 0 0 Z " fill="#22A1D9" transform="translate(35,21)"/>
<path d="M0 0 C4.95 0 9.9 0 15 0 C13.85240511 4.59037956 12.70960782 5.33669182 9 8 C8.34 7.34 7.68 6.68 7 6 C6.34 6.66 5.68 7.32 5 8 C2.875 7.625 2.875 7.625 1 7 C1 5.68 1 4.36 1 3 C0.67 2.01 0.34 1.02 0 0 Z " fill="#118AD5" transform="translate(68,9)"/>
<path d="M0 0 C0 0.66 0 1.32 0 2 C1.62414378 2.19477739 3.24936423 2.38059458 4.875 2.5625 C5.77992187 2.66691406 6.68484375 2.77132812 7.6171875 2.87890625 C10.01653057 3.19674852 10.01653057 3.19674852 12 2 C12 2.66 12 3.32 12 4 C13.093125 3.835 14.18625 3.67 15.3125 3.5 C19 3 19 3 22 3 C22 3.66 22 4.32 22 5 C24.31 5 26.62 5 29 5 C29 5.33 29 5.66 29 6 C16.03294538 6.4356984 4.26968784 6.76327569 -8 2 C-4.77208445 -0.1519437 -3.71599191 -0.20086443 0 0 Z " fill="#63B6D6" transform="translate(60,143)"/>
<path d="M0 0 C0.33 0.99 0.66 1.98 1 3 C-2.63 6.63 -6.26 10.26 -10 14 C-10.66 13.67 -11.32 13.34 -12 13 C-11.67 10.03 -11.34 7.06 -11 4 C-9.35 3.67 -7.7 3.34 -6 3 C-6 2.34 -6 1.68 -6 1 C-3 0 -3 0 0 0 Z " fill="#1AA3DE" transform="translate(67,70)"/>
<path d="M0 0 C0.33 0.66 0.66 1.32 1 2 C4.34493684 2.99444068 6.68955197 3.10348268 10 2 C9.67 3.65 9.34 5.3 9 7 C2.97968656 7.60965199 -2.94670256 8.13451772 -9 8 C-8.01 7.67 -7.02 7.34 -6 7 C-6 5.35 -6 3.7 -6 2 C-4.7934375 1.7834375 -4.7934375 1.7834375 -3.5625 1.5625 C-1.07896294 1.25864751 -1.07896294 1.25864751 0 0 Z " fill="#1484D1" transform="translate(102,46)"/>
<path d="M0 0 C1.32 0 2.64 0 4 0 C4 1.98 4 3.96 4 6 C4.66 6.33 5.32 6.66 6 7 C6.33 7.66 6.66 8.32 7 9 C0.375 12.125 0.375 12.125 -3 11 C-2.67 9.35 -2.34 7.7 -2 6 C-2.99 6.33 -3.98 6.66 -5 7 C-5 5.35 -5 3.7 -5 2 C-4.360625 1.855625 -3.72125 1.71125 -3.0625 1.5625 C-1.02454854 1.18992819 -1.02454854 1.18992819 0 0 Z " fill="#1FA2DC" transform="translate(101,134)"/>
<path d="M0 0 C0.99 0 1.98 0 3 0 C3.35465602 10.84984724 2.811149 20.44145822 0 31 C-0.66 31 -1.32 31 -2 31 C-1.835 30.35417969 -1.67 29.70835938 -1.5 29.04296875 C-0.85261743 25.10303888 -0.93243186 21.29564169 -1 17.3125 C-1.13439774 9.26879547 -1.13439774 9.26879547 0 7 C0.04022391 4.6670134 0.04320247 2.33293334 0 0 Z " fill="#4B92CC" transform="translate(145,70)"/>
<path d="M0 0 C-3.61563652 2.36407003 -5.87747271 1.85885985 -10 1 C-11.32 1 -12.64 1 -14 1 C-14.33 0.67 -14.66 0.34 -15 0 C-16.70772358 -0.08713831 -18.41898649 -0.10700007 -20.12890625 -0.09765625 C-21.16337891 -0.09443359 -22.19785156 -0.09121094 -23.26367188 -0.08789062 C-24.35228516 -0.07951172 -25.44089844 -0.07113281 -26.5625 -0.0625 C-27.65498047 -0.05798828 -28.74746094 -0.05347656 -29.87304688 -0.04882812 C-32.58208495 -0.03699826 -35.29101599 -0.02051543 -38 0 C-27.33183158 -5.5328268 -11.15536478 -3.48605149 0 0 Z " fill="#5DA3D3" transform="translate(98,10)"/>
<path d="M0 0 C8.14841863 1.8804043 14.41305059 8.05260224 20 14 C17.21788056 13.62403791 15.4120716 13.32681541 13.1875 11.5625 C12 10 12 10 12 8 C11.236875 8.226875 10.47375 8.45375 9.6875 8.6875 C8.800625 8.790625 7.91375 8.89375 7 9 C5.4375 7.625 5.4375 7.625 4 6 C1.89667109 5.28552357 1.89667109 5.28552357 0 5 C0.99 4.67 1.98 4.34 3 4 C2.01 3.34 1.02 2.68 0 2 C0 1.34 0 0.68 0 0 Z " fill="#5293CE" transform="translate(108,15)"/>
<path d="M0 0 C0.66 0.33 1.32 0.66 2 1 C1.67 1.66 1.34 2.32 1 3 C2.32 3.66 3.64 4.32 5 5 C4.07767578 4.96519531 4.07767578 4.96519531 3.13671875 4.9296875 C2.32847656 4.91164063 1.52023438 4.89359375 0.6875 4.875 C-0.51326172 4.84019531 -0.51326172 4.84019531 -1.73828125 4.8046875 C-4.28388576 4.84182678 -4.28388576 4.84182678 -7 7 C-8.99291992 7.13525391 -8.99291992 7.13525391 -11.23046875 6.9765625 C-12.03291016 6.925 -12.83535156 6.8734375 -13.66210938 6.8203125 C-14.91217773 6.72363281 -14.91217773 6.72363281 -16.1875 6.625 C-17.4549707 6.53992188 -17.4549707 6.53992188 -18.74804688 6.453125 C-20.83271217 6.31179176 -22.91646866 6.1571675 -25 6 C-25 5.67 -25 5.34 -25 5 C-23.42412109 4.83564453 -23.42412109 4.83564453 -21.81640625 4.66796875 C-14.13671108 3.81659983 -7.29927865 2.64284227 0 0 Z " fill="#6ABEDF" transform="translate(57,105)"/>
<path d="M0 0 C1.65 0.33 3.3 0.66 5 1 C4.814375 2.0725 4.62875 3.145 4.4375 4.25 C3.78319596 7.7715895 3.78319596 7.7715895 4.625 10.1875 C5 12 5 12 3.5625 14.25 C3.046875 14.8275 2.53125 15.405 2 16 C1.67 15.34 1.34 14.68 1 14 C0.34 14 -0.32 14 -1 14 C-0.67 9.38 -0.34 4.76 0 0 Z " fill="#0F86D3" transform="translate(107,54)"/>
<path d="M0 0 C2.375 0.3125 2.375 0.3125 5 1 C5.66 1.99 6.32 2.98 7 4 C5.73427767 5.15147661 4.46222094 6.29599314 3.1875 7.4375 C2.12595703 8.39462891 2.12595703 8.39462891 1.04296875 9.37109375 C-1 11 -1 11 -4 12 C-3.67 10.35 -3.34 8.7 -3 7 C-2.01 7 -1.02 7 0 7 C0 4.69 0 2.38 0 0 Z " fill="#48B1DC" transform="translate(48,82)"/>
<path d="M0 0 C0.680625 0.185625 1.36125 0.37125 2.0625 0.5625 C5.1255869 1.16622487 5.1255869 1.16622487 8.6875 0.4375 C9.780625 0.293125 10.87375 0.14875 12 0 C12.66 0.66 13.32 1.32 14 2 C11.69 2 9.38 2 7 2 C7 2.66 7 3.32 7 4 C7.66 4.33 8.32 4.66 9 5 C4.71 5 0.42 5 -4 5 C-3.67 4.34 -3.34 3.68 -3 3 C-2.34 3 -1.68 3 -1 3 C-0.67 2.01 -0.34 1.02 0 0 Z " fill="#44B2D6" transform="translate(16,98)"/>
<path d="M0 0 C2.00985644 0.50335659 3.98361409 1.1455797 5.94921875 1.80078125 C5.94921875 2.46078125 5.94921875 3.12078125 5.94921875 3.80078125 C3.44921875 5.42578125 3.44921875 5.42578125 0.94921875 6.80078125 C0.61921875 5.81078125 0.28921875 4.82078125 -0.05078125 3.80078125 C-2.40051943 5.69833269 -2.40051943 5.69833269 -2.17578125 8.92578125 C-2.11390625 10.34890625 -2.11390625 10.34890625 -2.05078125 11.80078125 C-4.1069343 10.10222003 -5.02154164 8.87680425 -5.98828125 6.36328125 C-6.05078125 3.80078125 -6.05078125 3.80078125 -4.61328125 1.36328125 C-2.05078125 -0.19921875 -2.05078125 -0.19921875 0 0 Z " fill="#23A6DF" transform="translate(25.05078125,36.19921875)"/>
<path d="M0 0 C0.66 0.33 1.32 0.66 2 1 C1.72087372 4.43859819 1.34760044 5.6928044 -1.28515625 8.01953125 C-2.20167969 8.61121094 -3.11820312 9.20289062 -4.0625 9.8125 C-4.98160156 10.41707031 -5.90070313 11.02164063 -6.84765625 11.64453125 C-7.55792969 12.09183594 -8.26820312 12.53914063 -9 13 C-9.66 12.67 -10.32 12.34 -11 12 C-10.45730469 11.46890625 -9.91460937 10.9378125 -9.35546875 10.390625 C-8.64003906 9.68421875 -7.92460938 8.9778125 -7.1875 8.25 C-6.47980469 7.55390625 -5.77210937 6.8578125 -5.04296875 6.140625 C-3.17724121 4.18571355 -1.56830358 2.19661447 0 0 Z " fill="#4DA0D3" transform="translate(101,74)"/>
<path d="M0 0 C0.66 0 1.32 0 2 0 C3.03513247 2.0762657 4.05266211 4.16131479 5.0625 6.25 C5.63097656 7.41015625 6.19945312 8.5703125 6.78515625 9.765625 C7.96485975 12.90644333 8.30230734 13.99353048 7 17 C7 16.01 7 15.02 7 14 C6.34 14 5.68 14 5 14 C4.34 12.02 3.68 10.04 3 8 C2.34 8 1.68 8 1 8 C0.67 5.36 0.34 2.72 0 0 Z " fill="#3B82C9" transform="translate(137,43)"/>
<path d="M0 0 C7.92 0 15.84 0 24 0 C21.13089949 2.86910051 18.8143074 2.4813693 14.8125 2.75 C13.51957031 2.84796875 12.22664063 2.9459375 10.89453125 3.046875 C6.75131344 2.99700678 3.88948953 2.31163071 0 1 C0 0.67 0 0.34 0 0 Z " fill="#42A4C9" transform="translate(17,111)"/>
<path d="M0 0 C0 0.99 0 1.98 0 3 C-0.66 3 -1.32 3 -2 3 C-2 3.66 -2 4.32 -2 5 C-3.4609375 6.5078125 -3.4609375 6.5078125 -5.375 8.125 C-6.00148438 8.66382813 -6.62796875 9.20265625 -7.2734375 9.7578125 C-9 11 -9 11 -11 11 C-10.67 9.02 -10.34 7.04 -10 5 C-9.01 5.33 -8.02 5.66 -7 6 C-7 5.34 -7 4.68 -7 4 C-2.52941176 0 -2.52941176 0 0 0 Z " fill="#4FA1D2" transform="translate(129,125)"/>
<path d="M0 0 C3.3 0.33 6.6 0.66 10 1 C9.67 1.99 9.34 2.98 9 4 C5.38357376 5.6691198 1.79425988 4.65669883 -2 4 C-1.34 2.68 -0.68 1.36 0 0 Z " fill="#1482D0" transform="translate(88,10)"/>
<path d="M0 0 C4 0 4 0 6.5625 2.4375 C7.366875 3.283125 8.17125 4.12875 9 5 C9.99 5.33 10.98 5.66 12 6 C12 7.32 12 8.64 12 10 C11.01 10.33 10.02 10.66 9 11 C8.34 10.01 7.68 9.02 7 8 C6.01 8.495 6.01 8.495 5 9 C4.9175 8.2575 4.835 7.515 4.75 6.75 C3.8603054 3.48778646 2.51496251 2.19045122 0 0 Z " fill="#107AD0" transform="translate(116,23)"/>
<path d="M0 0 C0 0.99 0 1.98 0 3 C0.061875 3.99 0.12375 4.98 0.1875 6 C0 9 0 9 -1.5 10.875 C-2.2425 11.431875 -2.2425 11.431875 -3 12 C-4.3832793 8.02307201 -5 5.17394737 -5 1 C-3.35 0.67 -1.7 0.34 0 0 Z " fill="#1D84CD" transform="translate(144,94)"/>
<path d="M0 0 C0.66 0.99 1.32 1.98 2 3 C0.68 5.31 -0.64 7.62 -2 10 C-2.66 8.68 -3.32 7.36 -4 6 C-3.34 5.67 -2.68 5.34 -2 5 C-1.27840576 3.35636866 -0.60648579 1.68949614 0 0 Z M-4 10 C-3.34 10.99 -2.68 11.98 -2 13 C-2.99 13 -3.98 13 -5 13 C-5.33 13.99 -5.66 14.98 -6 16 C-6.66 16 -7.32 16 -8 16 C-7.6875 14.125 -7.6875 14.125 -7 12 C-6.01 11.34 -5.02 10.68 -4 10 Z " fill="#138BD0" transform="translate(106,69)"/>
<path d="M0 0 C0.66 0 1.32 0 2 0 C2 0.66 2 1.32 2 2 C3.32 2.33 4.64 2.66 6 3 C5.34 4.98 4.68 6.96 4 9 C3.34 9 2.68 9 2 9 C0.3125 7.3125 0.3125 7.3125 -1 5 C-0.6875 2.25 -0.6875 2.25 0 0 Z " fill="#1275CB" transform="translate(127,34)"/>
<path d="M0 0 C0.33 0.66 0.66 1.32 1 2 C1.99 1.67 2.98 1.34 4 1 C4.99 1.99 5.98 2.98 7 4 C6.01 4.99 5.02 5.98 4 7 C3.01 6.34 2.02 5.68 1 5 C0.01 6.485 0.01 6.485 -1 8 C-1.66 8 -2.32 8 -3 8 C-1.125 2.25 -1.125 2.25 0 0 Z " fill="#409BD8" transform="translate(105,66)"/>
<path d="M0 0 C3.96 0 7.92 0 12 0 C12 0.33 12 0.66 12 1 C10.35 1 8.7 1 7 1 C7.185625 1.515625 7.37125 2.03125 7.5625 2.5625 C8.15419517 5.85908739 7.567267 8.72245735 7 12 C6.67 12 6.34 12 6 12 C5.9071875 10.1128125 5.9071875 10.1128125 5.8125 8.1875 C5.61529677 5.99389984 5.61529677 5.99389984 5 4 C2.5748212 2.00916823 2.5748212 2.00916823 0 1 C0 0.67 0 0.34 0 0 Z " fill="#499CD7" transform="translate(100,53)"/>
<path d="M0 0 C1.67542976 0.28604898 3.34385343 0.61781233 5 1 C4.67 1.556875 4.34 2.11375 4 2.6875 C2.8690399 5.30284522 2.84337026 7.1806646 3 10 C0.52098038 8.05989769 0.00329768 7.01374033 -0.75 3.875 C-0.8325 2.92625 -0.915 1.9775 -1 1 C-0.67 0.67 -0.34 0.34 0 0 Z " fill="#41B4DB" transform="translate(28,120)"/>
<path d="M0 0 C-0.38597015 2.79828356 -0.80136573 3.8205884 -2.9375 5.75 C-5 7 -5 7 -7 7 C-6.625 4.0625 -6.625 4.0625 -6 1 C-4 0 -4 0 0 0 Z " fill="#3B9BD1" transform="translate(83,58)"/>
<path d="M0 0 C0 1.65 0 3.3 0 5 C-0.721875 4.979375 -1.44375 4.95875 -2.1875 4.9375 C-4.91925138 4.99820559 -7.34256091 5.39258535 -10 6 C-4.4 0 -4.4 0 0 0 Z " fill="#58B0D9" transform="translate(46,15)"/>
<path d="M0 0 C0.33 0.66 0.66 1.32 1 2 C1.99 2 2.98 2 4 2 C4 2.66 4 3.32 4 4 C4.66 4.33 5.32 4.66 6 5 C5.01 5.495 5.01 5.495 4 6 C7.63 6.33 11.26 6.66 15 7 C15 7.33 15 7.66 15 8 C10.71 8 6.42 8 2 8 C0 3 0 3 0 0 Z " fill="#7EC6DF" transform="translate(9,96)"/>
<path d="M0 0 C0 0.66 0 1.32 0 2 C0.99 2.33 1.98 2.66 3 3 C3.66 3.66 4.32 4.32 5 5 C0.428721 4.45144652 -3.67435795 3.58255197 -8 2 C-4.77208445 -0.1519437 -3.71599191 -0.20086443 0 0 Z " fill="#6EC1E0" transform="translate(60,143)"/>
<path d="M0 0 C0.66 0.33 1.32 0.66 2 1 C1.34 1.66 0.68 2.32 0 3 C-0.6425235 5.06874034 -0.6425235 5.06874034 -1 7 C-3.64 7.33 -6.28 7.66 -9 8 C-6.17493137 5.0702992 -3.21203935 2.49825283 0 0 Z " fill="#59B0DA" transform="translate(88,87)"/>
<path d="M0 0 C-1.5830577 4.2742558 -4.50568404 6.26531794 -8 9 C-8 5 -8 5 -5.6875 2.25 C-3 0 -3 0 0 0 Z " fill="#45A5D0" transform="translate(64,75)"/>
<path d="M0 0 C0.66 0.33 1.32 0.66 2 1 C2 3 2 5 2 7 C0.68 6.67 -0.64 6.34 -2 6 C-2 5.34 -2 4.68 -2 4 C-2.99 3.67 -3.98 3.34 -5 3 C-2.625 1.4375 -2.625 1.4375 0 0 Z M-2 7 C0 8 0 8 0 8 Z M-5 8 C-4.01 8.33 -3.02 8.66 -2 9 C-2.66 9 -3.32 9 -4 9 C-4.33 9.66 -4.66 10.32 -5 11 C-5 10.01 -5 9.02 -5 8 Z " fill="#44AEDD" transform="translate(77,95)"/>
<path d="M0 0 C0.66 0.66 1.32 1.32 2 2 C1.01 2.33 0.02 2.66 -1 3 C-0.67 5.31 -0.34 7.62 0 10 C-0.66 10 -1.32 10 -2 10 C-2 9.34 -2 8.68 -2 8 C-2.99 8 -3.98 8 -5 8 C-4.64950425 4.75791433 -4.43778819 3.38472296 -1.9375 1.1875 C-1.298125 0.795625 -0.65875 0.40375 0 0 Z " fill="#1A91D1" transform="translate(92,86)"/>
<path d="M0 0 C0.99 0 1.98 0 3 0 C3 0.66 3 1.32 3 2 C3.66 2.33 4.32 2.66 5 3 C3.35 3.33 1.7 3.66 0 4 C0 4.99 0 5.98 0 7 C-0.99 6.67 -1.98 6.34 -3 6 C-3 5.01 -3 4.02 -3 3 C-2.34 3 -1.68 3 -1 3 C-0.67 2.01 -0.34 1.02 0 0 Z " fill="#23A1D4" transform="translate(72,99)"/>
<path d="M0 0 C-1 2 -1 2 -2.99609375 2.66796875 C-3.80175781 2.83941406 -4.60742188 3.01085937 -5.4375 3.1875 C-6.24058594 3.36667969 -7.04367188 3.54585938 -7.87109375 3.73046875 C-10 4 -10 4 -12 3 C-12 2.34 -12 1.68 -12 1 C-7.95858806 0.36605303 -4.0934693 -0.12404452 0 0 Z " fill="#65BCD8" transform="translate(35,99)"/>
<path d="M0 0 C0.33 0.99 0.66 1.98 1 3 C-3.39453125 7.00390625 -3.39453125 7.00390625 -5 8 C-5.99 7.67 -6.98 7.34 -8 7 C-5.36 4.69 -2.72 2.38 0 0 Z " fill="#57B0D9" transform="translate(35,21)"/>
<path d="M0 0 C1.98 0.66 3.96 1.32 6 2 C3.73814546 4.26185454 2.03016439 5.03921617 -1 6 C-1.99 5.67 -2.98 5.34 -4 5 C-2.68 3.35 -1.36 1.7 0 0 Z " fill="#56B1DA" transform="translate(102,140)"/>
<path d="M0 0 C0.99 0.33 1.98 0.66 3 1 C3.6875 3.0625 3.6875 3.0625 4 5 C2.02 5.66 0.04 6.32 -2 7 C-2 3.89448334 -1.4606285 2.64738916 0 0 Z " fill="#138DD4" transform="translate(131,112)"/>
<path d="M0 0 C0.99 0.33 1.98 0.66 3 1 C2.67 4.3 2.34 7.6 2 11 C0.68 10.34 -0.64 9.68 -2 9 C-1.34 6.03 -0.68 3.06 0 0 Z " fill="#1386D1" transform="translate(136,103)"/>
<path d="M0 0 C2.875 -0.1875 2.875 -0.1875 6 0 C6.66 0.99 7.32 1.98 8 3 C7.67 3.66 7.34 4.32 7 5 C4.0625 4.1875 4.0625 4.1875 1 3 C0.67 2.01 0.34 1.02 0 0 Z " fill="#6CBEDA" transform="translate(44,139)"/>
<path d="M0 0 C2.67927341 4.01891012 2.15601248 6.24161923 2 11 C1.54625 10.34 1.0925 9.68 0.625 9 C0.08875 8.34 -0.4475 7.68 -1 7 C-1.66 7 -2.32 7 -3 7 C-2.38722388 4.03824877 -1.74627478 2.61941217 0 0 Z " fill="#1475C7" transform="translate(143,57)"/>
<path d="M0 0 C-1.09068668 3.77545388 -1.9083091 6.47043472 -5 9 C-5 6.36 -5 3.72 -5 1 C-3 0 -3 0 0 0 Z " fill="#519DD5" transform="translate(143,105)"/>
<path d="M0 0 C0.99 0 1.98 0 3 0 C5 2 5 2 6 4 C5.01 4 4.02 4 3 4 C2.34 5.32 1.68 6.64 1 8 C0.34 7.34 -0.32 6.68 -1 6 C-0.67 5.01 -0.34 4.02 0 3 C0 2.01 0 1.02 0 0 Z " fill="#1279CA" transform="translate(105,15)"/>
<path d="M0 0 C1.98 0.495 1.98 0.495 4 1 C2.7191375 4.64553172 1.83328987 6.16671013 -1 9 C-0.67 6.03 -0.34 3.06 0 0 Z " fill="#4DA2D5" transform="translate(134,113)"/>
<path d="M0 0 C0.99 0 1.98 0 3 0 C3.33 0.99 3.66 1.98 4 3 C2.68 3.99 1.36 4.98 0 6 C-0.66 5.67 -1.32 5.34 -2 5 C-1.125 1.125 -1.125 1.125 0 0 Z " fill="#30A1DA" transform="translate(64,70)"/>
<path d="M0 0 C-1.32 1.65 -2.64 3.3 -4 5 C-4.99 4.67 -5.98 4.34 -7 4 C-7.33 3.01 -7.66 2.02 -8 1 C-5.29120665 -0.35439668 -2.99066732 -0.06501451 0 0 Z " fill="#4FAADB" transform="translate(75,66)"/>
<path d="M0 0 C2.64 0.66 5.28 1.32 8 2 C5.01353231 3.99097846 2.40312738 4.94124926 -1 6 C-0.67 4.02 -0.34 2.04 0 0 Z " fill="#51A4D9" transform="translate(88,52)"/>
<path d="M0 0 C0.99 0 1.98 0 3 0 C3.25 2.3125 3.25 2.3125 3 5 C1 6.8125 1 6.8125 -1 8 C-1.66 7.34 -2.32 6.68 -3 6 C-2.67 5.01 -2.34 4.02 -2 3 C-2 3.66 -2 4.32 -2 5 C-1.01 5 -0.02 5 1 5 C0.67 3.35 0.34 1.7 0 0 Z " fill="#3497D1" transform="translate(130,118)"/>
<path d="M0 0 C0.66 0.33 1.32 0.66 2 1 C1.67 1.66 1.34 2.32 1 3 C0.34 3 -0.32 3 -1 3 C-0.67 3.99 -0.34 4.98 0 6 C-3 6 -3 6 -4.6875 4.5 C-5.120625 4.005 -5.55375 3.51 -6 3 C-4.03533587 1.93224776 -2.03144641 0.93446535 0 0 Z " fill="#69BADE" transform="translate(70,99)"/>
<path d="M0 0 C0.33 0.99 0.66 1.98 1 3 C1.66 3.33 2.32 3.66 3 4 C2.67 6.31 2.34 8.62 2 11 C1.01 10.67 0.02 10.34 -1 10 C-0.67 6.7 -0.34 3.4 0 0 Z " fill="#68BFE0" transform="translate(8,61)"/>
<path d="M0 0 C4.875 4.625 4.875 4.625 6 8 C4.35 7.67 2.7 7.34 1 7 C0.67 4.69 0.34 2.38 0 0 Z " fill="#5391C9" transform="translate(128,29)"/>
<path d="M0 0 C0 0.33 0 0.66 0 1 C-2.31 1 -4.62 1 -7 1 C-7 1.66 -7 2.32 -7 3 C-8.32 3 -9.64 3 -11 3 C-11 2.34 -11 1.68 -11 1 C-6.92630576 -1.03684712 -4.41062136 -1.0257259 0 0 Z " fill="#3EB6E1" transform="translate(30,99)"/>
<path d="M0 0 C0.66 0.33 1.32 0.66 2 1 C1.67 2.65 1.34 4.3 1 6 C0.01 6.33 -0.98 6.66 -2 7 C-2.33 6.01 -2.66 5.02 -3 4 C-1.5625 1.8125 -1.5625 1.8125 0 0 Z " fill="#389BD6" transform="translate(101,74)"/>
<path d="M0 0 C0.33 0 0.66 0 1 0 C1.33 1.98 1.66 3.96 2 6 C2.33 6 2.66 6 3 6 C3 7.98 3 9.96 3 12 C1.68 11.34 0.36 10.68 -1 10 C-0.67 6.7 -0.34 3.4 0 0 Z " fill="#197EC4" transform="translate(107,58)"/>
<path d="M0 0 C2.97 0.33 5.94 0.66 9 1 C5.23312136 2.88343932 3.97041037 3.22057835 0 3 C0 2.01 0 1.02 0 0 Z " fill="#64B7DB" transform="translate(89,145)"/>
<path d="M0 0 C0.66 0.33 1.32 0.66 2 1 C1.67 1.99 1.34 2.98 1 4 C0.34 4 -0.32 4 -1 4 C-1.33 3.01 -1.66 2.02 -2 1 C-1.34 0.67 -0.68 0.34 0 0 Z M-4 2 C-3.34 2.33 -2.68 2.66 -2 3 C-2.66 4.65 -3.32 6.3 -4 8 C-4.66 6.68 -5.32 5.36 -6 4 C-5.34 4 -4.68 4 -4 4 C-4 3.34 -4 2.68 -4 2 Z " fill="#1EA5DD" transform="translate(77,102)"/>
<path d="M0 0 C2.475 0.495 2.475 0.495 5 1 C4.67 2.65 4.34 4.3 4 6 C3.01 6 2.02 6 1 6 C0.67 4.02 0.34 2.04 0 0 Z " fill="#41B8E1" transform="translate(12,87)"/>
<path d="M0 0 C0.66 0.33 1.32 0.66 2 1 C2.75 3.9375 2.75 3.9375 3 7 C2.34 7.66 1.68 8.32 1 9 C1 7.68 1 6.36 1 5 C0.34 5 -0.32 5 -1 5 C-1.33 5.66 -1.66 6.32 -2 7 C-1.125 2.25 -1.125 2.25 0 0 Z " fill="#0F7BCB" transform="translate(113,23)"/>
<path d="M0 0 C0.33 0.66 0.66 1.32 1 2 C1.99 2.33 2.98 2.66 4 3 C-0.75 6 -0.75 6 -3 6 C-3 5.01 -3 4.02 -3 3 C-2.01 3 -1.02 3 0 3 C0 2.01 0 1.02 0 0 Z " fill="#62B2DB" transform="translate(111,136)"/>
<path d="M0 0 C1.84765625 0.33984375 1.84765625 0.33984375 4.0625 0.9375 C5.16271484 1.22947266 5.16271484 1.22947266 6.28515625 1.52734375 C7.13400391 1.76130859 7.13400391 1.76130859 8 2 C7.67 2.66 7.34 3.32 7 4 C5.35 4 3.7 4 2 4 C2 3.34 2 2.68 2 2 C1.01 1.67 0.02 1.34 -1 1 C-0.67 0.67 -0.34 0.34 0 0 Z " fill="#38A4D3" transform="translate(110,134)"/>
<path d="M0 0 C0.33 1.32 0.66 2.64 1 4 C-0.98 4.99 -2.96 5.98 -5 7 C-3.70700306 4.11562221 -2.34058637 2.12780579 0 0 Z " fill="#66B9DE" transform="translate(26,29)"/>
<path d="M0 0 C1.32 0.33 2.64 0.66 4 1 C4.33 2.32 4.66 3.64 5 5 C3.68 5.33 2.36 5.66 1 6 C0.67 5.34 0.34 4.68 0 4 C0.99 4 1.98 4 3 4 C2.01 3.34 1.02 2.68 0 2 C0 1.34 0 0.68 0 0 Z " fill="#3289CD" transform="translate(108,15)"/>
<path d="M0 0 C0.99 0.33 1.98 0.66 3 1 C2.6875 2.9375 2.6875 2.9375 2 5 C1.01 5.33 0.02 5.66 -1 6 C-0.67 4.02 -0.34 2.04 0 0 Z " fill="#4AA7DA" transform="translate(119,130)"/>
<path d="M0 0 C3 1 3 1 4.6875 4.0625 C5.120625 5.031875 5.55375 6.00125 6 7 C3.53199953 5.84826645 1.95216435 4.95216435 0 3 C0 2.01 0 1.02 0 0 Z " fill="#8ACCDE" transform="translate(25,124)"/>
<path d="M0 0 C0.66 0 1.32 0 2 0 C2.33 1.65 2.66 3.3 3 5 C1.02 5 -0.96 5 -3 5 C-1.625 2.5 -1.625 2.5 0 0 Z " fill="#3AAEDB" transform="translate(33,94)"/>
<path d="M0 0 C0.66 0.33 1.32 0.66 2 1 C2.625 3.0625 2.625 3.0625 3 5 C0.36 5 -2.28 5 -5 5 C-3.35 3.35 -1.7 1.7 0 0 Z " fill="#0F7DCE" transform="translate(135,59)"/>
<path d="M0 0 C0.66 0 1.32 0 2 0 C4.09230769 4.43076923 4.09230769 4.43076923 3.625 7.3125 C3.41875 7.869375 3.2125 8.42625 3 9 C3 8.01 3 7.02 3 6 C2.34 6 1.68 6 1 6 C0.67 4.02 0.34 2.04 0 0 Z " fill="#5793CA" transform="translate(141,51)"/>
<path d="M0 0 C0.99 0.33 1.98 0.66 3 1 C3 2.32 3 3.64 3 5 C2.01 5.33 1.02 5.66 0 6 C-0.66 4.35 -1.32 2.7 -2 1 C-1.34 0.67 -0.68 0.34 0 0 Z " fill="#1974C3" transform="translate(125,28)"/>
</svg>
